# xmcd
#
# Track frame offsets: 
#        150
#        11152
#        24990
#        37067
#        52960
#        64647
#        80317
#        94532
#        115080
#        130530
#        146477
#        168220
#
# Disc length: 2328 seconds
#
# Revision: 2
# Processed by: cddbd v1.5.2PL0 Copyright (c) Steve Scherf et al.
# Submitted via: ExactAudioCopy v0.95b4
#
DISCID=8b09160c
DTITLE=Rosie Flores - Dance Hall Dreams
DYEAR=1999
DGENRE=Folk
TTITLE0=Little Bit More
TTITLE1=We'll Survive
TTITLE2=Tremolo
TTITLE3=Who's Gonna Fix It Now
TTITLE4=Funnel Of Love
TTITLE5=From Where I Stand
TTITLE6=Bring It On
TTITLE7=This Ol' Honky Tonk
TTITLE8=The Man Downstairs
TTITLE9=It Came From Memphis
TTITLE10='59 Tweedle Dee
TTITLE11=Dance Hall Dreams
EXTD=
EXTT0=
EXTT1=
EXTT2=
EXTT3=
EXTT4=
EXTT5=
EXTT6=
EXTT7=
EXTT8=
EXTT9=
EXTT10=
EXTT11=
PLAYORDER=
